Coordinates
version=1
nRows=8
nColumns=40
inDegrees=yes

Units are S.I. units (second, meters, Newtons, ...)
Angles are in degrees.

endheader
time	pelvis_tilt	pelvis_list	pelvis_rotation	pelvis_tx	pelvis_ty	pelvis_tz	hip_flexion_r	hip_adduction_r	hip_rotation_r	knee_angle_r	knee_angle_r_beta	ankle_angle_r	subtalar_angle_r	mtp_angle_r	hip_flexion_l	hip_adduction_l	hip_rotation_l	knee_angle_l	knee_angle_l_beta	ankle_angle_l	subtalar_angle_l	mtp_angle_l	lumbar_extension	lumbar_bending	lumbar_rotation	arm_flex_r	arm_add_r	arm_rot_r	elbow_flex_r	pro_sup_r	wrist_flex_r	wrist_dev_r	arm_flex_l	arm_add_l	arm_rot_l	elbow_flex_l	pro_sup_l	wrist_flex_l	wrist_dev_l
     43.85250000	     -3.44639371	     -5.47494719	      1.22105296	      0.89707306	      0.90962798	      0.57794094	     16.65446621	      8.72255661	     -4.50385122	     30.06137041	     30.06137041	     18.26337726	    -12.73994504	      0.42558373	     23.31509001	    -13.61182968	      6.77422344	     59.53179197	     59.53179197	     13.51598118	    -18.93463727	     13.03526340	     -9.70962338	      3.38125684	     -0.89089774	     24.20735542	    -22.66242865	    -12.46440336	     84.90479488	     44.92664893	      0.00000000	      0.00000000	     -4.50209992	     -9.61650647	      8.07503507	     23.05876597	     45.26069705	      0.00000000	      0.00000000
     43.87557143	     -3.14693966	     -5.47863557	      1.90738455	      0.89569450	      0.90783041	      0.57961617	     16.67192694	      8.92838328	     -4.49159265	     31.05609824	     31.05609824	     19.09397166	    -13.78252340	      1.47673134	     24.99463830	    -13.47309939	      7.59107335	     60.64036112	     60.64036112	     14.72697981	    -19.05620961	     16.65285258	     -9.85757767	      3.22142818	     -0.99217953	     27.05745581	    -22.53662271	    -11.71577549	     86.42251420	     44.90082404	      0.00000000	      0.00000000	     -6.15160242	     -9.89479327	      9.54654830	     23.16898236	     44.94369160	      0.00000000	      0.00000000
     43.89864286	     -2.92645918	     -5.40995398	      2.70403980	      0.89406682	      0.90667576	      0.58070428	     16.54765381	      8.94240819	     -4.78979191	     31.56752810	     31.56752810	     19.44220186	    -14.53820154	      1.53993274	     26.53086220	    -13.40649947	      7.96533881	     60.60676729	     60.60676729	     14.90022036	    -19.17983521	     16.77717461	    -10.00325070	      3.04176260	     -0.65936110	     29.68179266	    -22.57513905	    -11.86413590	     87.82295558	     44.87715249	      0.00000000	      0.00000000	     -7.01692316	     -9.68197240	      9.86642562	     22.82237801	     44.87101994	      0.00000000	      0.00000000
     43.92171429	     -2.79385210	     -5.25691834	      3.59154225	      0.89218446	      0.90627208	      0.58134349	     16.31816270	      8.80080588	     -5.22514302	     31.68812173	     31.68812173	     19.68383228	    -15.05695442	      1.63276584	     27.95751099	    -13.21146153	      8.15861332	     59.60994989	     59.60994989	     15.18162696	    -19.25266962	     16.88274577	    -10.10676866	      2.77223771	     -0.11223715	     32.23155047	    -22.98948850	    -11.98130354	     88.82967705	     44.86259929	      0.00000000	      0.00000000	     -7.48964209	     -9.58586290	     10.04562631	     22.64771506	     44.82974585	      0.00000000	      0.00000000
     43.94478571	     -2.83327692	     -5.02368667	      4.56716895	      0.88999738	      0.90651024	      0.58149038	     16.11584201	      8.50747098	     -5.76949504	     31.48574426	     31.48574426	     19.79506712	    -15.44012482	      1.79800203	     29.32566375	    -12.83021455	      8.21740427	     57.70274055	     57.70274055	     15.40868986	    -19.25347333	     16.98500938	    -10.10079564	      2.45760632	      0.36193889	     34.74814404	    -23.34482012	    -11.98178056	     89.78152967	     44.84537889	      0.00000000	      0.00000000	     -7.74579595	     -9.48580854	     10.20853568	     22.54332294	     44.79523418	      0.00000000	      0.00000000
     43.96785714	     -2.81442872	     -4.72943785	      5.59924394	      0.88767936	      0.90758529	      0.58121765	     15.69444114	      8.08974493	     -6.47332914	     31.02769705	     31.02769705	     19.85776200	    -15.53807103	      2.05690740	     30.28377566	    -12.28790837	      8.18948162	     54.90412887	     54.90412887	     15.36320529	    -19.17911580	     16.78144805	    -10.25575613	      2.15669687	      0.43396080	     37.67727532	    -23.36186178	    -11.36819961	     90.91439035	     44.80783300	      0.00000000	      0.00000000	     -7.93751125	     -9.35426007	     10.59148652	     22.43144287	     44.72125636	      0.00000000	      0.00000000
     43.99092857	     -3.03852197	     -4.43371439	      6.64989845	      0.88519086	      0.90900029	      0.58059461	     15.34679490	      7.60204041	     -7.29837333	     30.21518731	     30.21518731	     19.79758161	    -15.35520450	      2.30364845	     31.07294753	    -11.68640951	      8.00971179	     51.16488672	     51.16488672	     13.83196261	    -19.06494338	     13.44968258	    -10.09526190	      1.82964328	      0.14693697	     41.02040268	    -23.53586246	     -9.10408405	     90.39410561	     44.80087116	      0.00000000	      0.00000000	     -8.36265636	     -9.40945891	     12.03560330	     22.92514010	     44.45298525	      0.00000000	      0.00000000
     44.01400000	     -3.22664667	     -4.08038224	      7.71418895	      0.88263926	      0.91108951	      0.57963617	     14.76609678	      7.02457859	     -8.25877493	     29.07621687	     29.07621687	     19.56782066	    -14.97921663	      2.39631899	     31.51154250	    -10.80105407	      8.04285867	     47.03796618	     47.03796618	     12.75662720	    -18.73284251	     12.72843720	    -10.11230674	      1.43399728	      0.58086148	     43.48307340	    -23.78702497	     -8.93198655	     90.97147427	     44.79827216	      0.00000000	      0.00000000	     -8.04401640	     -9.30608820	     12.39843440	     23.20523743	     44.40281551	      0.00000000	      0.00000000
